<?xml version="1.0" encoding="utf-8"?>
<!-- Generator: Adobe Illustrator 17.1.0, SVG Export Plug-In . SVG Version: 6.00 Build 0)  -->
<!DOCTYPE svg PUBLIC "-//W3C//DTD SVG 1.1//EN" "http://www.w3.org/Graphics/SVG/1.1/DTD/svg11.dtd">
<svg version="1.1" id="Ebene_1" xmlns="http://www.w3.org/2000/svg" xmlns:xlink="http://www.w3.org/1999/xlink" x="0px" y="0px"
	 viewBox="212.5 0 127.6 127.6" enable-background="new 212.5 0 127.6 127.6" xml:space="preserve">
<path d="M306.7,62.6l-12.3,12.3l-4.2-4.2l24.8-24.8l-20.9-20.9l-24.8,24.8l-4.2-4.2l12.3-12.3L244.1,0l-20.9,20.9l33.4,33.4l4.4-4.4
	l4.2,4.2l-4.4,4.4l8.4,8.4l-8.4,8.4l-8.4-8.4c-5.8,5.8-5.8,15.1,0,20.9c5.8,5.8,15.1,5.8,20.9,0l-8.4-8.4l8.4-8.3l8.4,8.3l4.4-4.4
	l4.2,4.2l-4.4,4.4l33.4,33.4L340.2,96L306.7,62.6z"/>
<path d="M244,58.3c-5.1,5.1-7.8,11.8-7.8,18.9s2.8,13.9,7.8,18.9c5.1,5.1,11.8,7.8,18.9,7.8c7.1,0,13.9-2.8,18.9-7.8l-2.2-2.2
	c-9.2,9.2-24.2,9.2-33.4,0c-9.2-9.2-9.2-24.2,0-33.4L244,58.3z"/>
<path d="M224.3,77.3c0,10.3,4,20,11.3,27.3c7.5,7.5,17.4,11.3,27.3,11.3c9.9,0,19.8-3.8,27.3-11.3l-2.2-2.2
	c-13.8,13.8-36.3,13.8-50.1,0c-6.7-6.7-10.4-15.6-10.4-25.1c0-9.5,3.7-18.4,10.4-25.1l-2.2-2.2C228.3,57.3,224.3,67,224.3,77.3z"/>
<path d="M229.5,110.7c-18.4-18.4-18.4-48.4,0-66.8l-2.2-2.2c-19.6,19.6-19.6,51.6,0,71.3c9.8,9.8,22.7,14.7,35.6,14.7
	s25.8-4.9,35.6-14.7l-2.2-2.2C277.9,129.1,247.9,129.1,229.5,110.7z"/>
</svg>
